<svg width="45" height="45" viewBox="0 0 45 45" fill="none" xmlns="http://www.w3.org/2000/svg">
<path d="M33.375 36L30 20.625L36.5625 14.0625C39.375 11.25 40.3125 7.5 39.375 5.625C37.5 4.6875 33.75 5.625 30.9375 8.4375L24.375 15L9 11.625C8.0625 11.4375 7.3125 11.8125 6.9375 12.5625L6.375 13.5C6 14.4375 6.1875 15.375 6.9375 15.9375L16.875 22.5L13.125 28.125H7.5L5.625 30L11.25 33.75L15 39.375L16.875 37.5V31.875L22.5 28.125L29.0625 38.0625C29.625 38.8125 30.5625 39 31.5 38.625L32.4375 38.25C33.1875 37.6875 33.5625 36.9375 33.375 36Z" stroke="black" stroke-width="2" stroke-linecap="round" stroke-linejoin="round"/>
</svg>
